<?xml version="1.0" encoding="UTF-8"?>
<svg width="419px" height="512px" viewBox="0 0 419 512" version="1.1" xmlns="http://www.w3.org/2000/svg" xmlns:xlink="http://www.w3.org/1999/xlink">
    <!-- Generator: Sketch 40.3 (33839) - http://www.bohemiancoding.com/sketch -->
    <title>Fill-145-path</title>
    <desc>Created with Sketch.</desc>
    <defs></defs>
    <g id="Page-1" stroke="none" stroke-width="1" fill="none" fill-rule="evenodd">
        <g id="material-trace">
            <g id="Fill-145">
                <g id="Page-1"></g>
            </g>
        </g>
        <path d="M131,281.8 C131,324.296 166.083637,358.6 209.545455,358.6 C253.007273,358.6 288.09091,324.296 288.09091,281.8 C288.09091,239.304 253.007273,205 209.545455,205 C166.083637,205 131,239.304 131,281.8 L131,281.8 L131,281.8 L131,281.8 Z" id="Fill-145-path" fill="#000000" opacity="0.802238806"></path>
        <path d="M418.90909,450.304 L418.90909,153.6 L261.818181,0 L52.3636364,0 C23.5636364,0 0.2618182,23.04 0.2618182,51.2 L0,460.8 C0,488.96 23.3018182,512 52.1018182,512 L366.545455,512 C378.327272,512 388.800001,508.16 397.701819,501.76 L281.716363,388.352 C260.77091,401.664 236.16,409.6 209.454545,409.6 C137.192727,409.6 78.5454545,352.256 78.5454545,281.6 C78.5454545,210.944 137.192727,153.6 209.454545,153.6 C281.716363,153.6 340.363636,210.944 340.363636,281.6 C340.363636,307.712 332.247273,331.776 318.632727,352 L418.90909,450.304 L418.90909,450.304 L418.90909,450.304 L418.90909,450.304 Z" id="Fill-145-path" fill="#000000" opacity="0.802238806"></path>
    </g>
</svg>